<?xml version="1.0" encoding="utf-8"?>
<!-- Generator: Adobe Illustrator 21.0.0, SVG Export Plug-In . SVG Version: 6.00 Build 0)  -->
<svg version="1.1" id="Layer_1" xmlns="http://www.w3.org/2000/svg" xmlns:xlink="http://www.w3.org/1999/xlink" x="0px" y="0px"
	 viewBox="0 0 640 480" style="enable-background:new 0 0 640 480;" xml:space="preserve">
<style type="text/css">
	.st0{fill:url(#SVGID_1_);}
	.st1{fill:#B3B3B3;}
	.st2{fill:#006837;}
	.st3{fill:#009245;}
	.st4{fill:none;stroke:#000000;stroke-miterlimit:10;}
	.st5{fill:none;}
	.st6{font-family:'Bungee-Regular';}
	.st7{font-size:58.2297px;}
</style>
<g id="XMLID_1_">
	<g>
		<linearGradient id="SVGID_1_" gradientUnits="userSpaceOnUse" x1="105.5416" y1="218.7198" x2="499.7038" y2="218.7198">
			<stop  offset="0" style="stop-color:#CCE0F4"/>
			<stop  offset="6.405089e-02" style="stop-color:#C3DCF2"/>
			<stop  offset="0.1706" style="stop-color:#A9D2EE"/>
			<stop  offset="0.3066" style="stop-color:#80C2E7"/>
			<stop  offset="0.4649" style="stop-color:#47ACDE"/>
			<stop  offset="0.5674" style="stop-color:#1E9CD7"/>
			<stop  offset="0.8652" style="stop-color:#0075BE"/>
			<stop  offset="0.9944" style="stop-color:#005B97"/>
		</linearGradient>
		<path class="st0" d="M339.6,139.3c4.3-17.8,9.9-42.8,24.4-54c12.2-9.4,28.5-10.8,43.8-11.8c10.6-0.7,21.8,0.3,32.4-0.4l0.1,0
			c-0.1,0.4-0.1,0.9-0.1,1.3c0,2.8,7.8,15.9,10.6,15.9c2.6,0,11.9-7.9,11.9-7.9l9.3,10.6l6.6-9.3l10.6,7.9c6.6,0,7.9-7.9,7.9-7.9
			l2.6,15.9c0,0-4.8,6.3-9.3,9.3c-20.9,13.9-52.4,1.9-71.2,18.5c-12.5,11-17.7,27.8-22.4,43.8c-4.4,14.8-8.7,29.6-13,44.4
			c-6.3,21.4-12.9,43.3-26.6,60.9c-16.4,21-38.8,41.6-62.6,53.4c-17.3,8.6-19.7,10-37.1,18.5c-9.3,4.6-38.7,12.1-49,13.2
			c-11.9,1.3-22.3,2.5-33.1,2.6c-25,0.3-69.9-12-69.9-12l38.2-19.7l27.8,15.9l-2.6-14.6l18.5,5.3l-9.3-10.6l31.3-2.6
			c13.8,0.6,27.9-2.2,41.1-6.2c13.4-4.1,26.1-11.7,34.6-22.9c6.1-8.1,9.9-17.7,13.4-27.2c11.3-30.2,20.3-62.3,29.1-93.3l0.4-0.2
			c0.3,0.6,0.7,1.2,1,1.9c6.4,11.5,13.1,24.8,13.1,24.8s0.5-25.2,0.3-35.9c-0.1-5.7-0.1-11.4-0.8-17
			C341.2,146.4,340.5,142.8,339.6,139.3L339.6,139.3z"/>
		<path class="st1" d="M281.6,140.7c2.8-13.6,6.4-27.2,10.6-40.4c0.5-1.5,1-3,1.4-4.5c4.4-13.6,7.7-23.6,13-31.8
			c6.1-9.6,14.7-17,30.4-25.2c26.3-13.8,79.4-13.2,79.4-13.2l41,7.9L491.8,48l10.6,9.3l-0.3,7.8c0,0-6.1-6.2-8.6-8
			c-2-1.4-4.7-0.8-6,1.3l-0.9,10.9l-10-9.9c-0.3-0.4-0.9-0.4-1.2,0l-4.7,9.9L465,62c-1-0.9-2.4-0.9-3.4-0.2L456,73.1
			c0,0-4-14.6-7.6-12c-3.1,2.2-7.5,7.1-8.2,12l-0.1,0c-10.6,0.7-21.8-0.3-32.4,0.4c-15.3,1-31.6,2.5-43.8,11.8
			c-14.5,11.2-20.1,36.2-24.4,54l-0.1,0c1,3.5,1.7,7.1,2.2,10.6c0.7,5.6,0.8,11.3,0.8,17c0.1,10.7-0.3,35.9-0.3,35.9
			s-6.8-13.3-13.1-24.8c-0.3-0.6-0.7-1.2-1-1.9l-0.4,0.2c-8.8,31-17.8,63.1-29.1,93.3c-3.6,9.5-7.3,19.1-13.4,27.2
			c-8.5,11.2-21.1,18.9-34.6,22.9c-13.2,4-27.4,6.8-41.1,6.2l0.4,0l-31.8-5.3l10.6-11.9l-17.2,1.3v-10.6l-29.1,9.3l-31.8-18.5
			c0,0,67.8-9.6,105.9,4c4.5,1.6,15.9,4,26.5,0c8.3-3.1,12.9-11.3,14.6-14.6c14.2-27.3,15-38,15.9-68.8
			C274.1,187.3,276.8,163.8,281.6,140.7z"/>
		<path class="st2" d="M281.3,140.6c-10.8-3.4-41-6.6-41-6.6l-5.3-21.2l-21.2,15.9l-29.1-2.6l-2.6-18.5l-26.5,17.2
			c0,0-18.5-1.3-46.3,1.3c0.7-0.6,1.4-1.3,2.1-1.9l0.5,0.6c6.6-4,11.3-6.1,16.2-8.3c7.3-3.3,14.6-6.7,21.9-10
			c7.4-3.4,14.8-6.7,22.6-8.8c6.9-1.9,13.9-2.8,21-3.6c32.7-4.1,68.1-8,99.7,1.7l0.4,0.1c-0.5,1.5-0.9,3-1.4,4.5
			c-4.2,13.3-7.8,26.8-10.6,40.4L281.3,140.6z"/>
		<path class="st3" d="M128.1,116.4c-4.9,2.2-9.5,4.4-16.2,8.3l-0.5-0.6c17.8-16.4,19.4-30.5,64.1-45.8
			c62.2-21.3,111.3-17.3,131-14.6l0.1,0.1c-5.2,8.2-8.6,18.2-13,31.8l-0.4-0.1c-31.5-9.7-66.9-5.8-99.7-1.7
			c-7.1,0.9-14.1,1.8-21,3.6c-7.8,2.1-15.2,5.5-22.6,8.8C142.7,109.8,135.4,113.1,128.1,116.4z"/>
	</g>
	<g>
		<path class="st4" d="M440.2,73.2c0.7-4.9,5.1-9.9,8.2-12c3.6-2.6,7.6,12,7.6,12l5.5-11.3c1-0.7,2.5-0.7,3.4,0.2l5.6,7.1l4.7-9.9
			c0.3-0.4,0.8-0.4,1.2,0l10,9.9l0.9-10.9c1.2-2.1,4-2.7,6-1.3c2.6,1.8,8.6,8,8.6,8l0.3-7.8L491.8,48l-34.4-14.6l-41-7.9
			c0,0-53.1-0.5-79.4,13.2c-15.7,8.2-24.3,15.5-30.4,25.2c-5.2,8.2-8.6,18.2-13,31.8c-0.5,1.5-0.9,3-1.4,4.5
			c-4.2,13.3-7.8,26.8-10.6,40.4c-4.8,23.1-7.5,46.6-8.2,70.2c-0.9,30.8-1.6,41.4-15.9,68.8c-1.7,3.2-6.2,11.4-14.6,14.6
			c-10.6,4-22,1.6-26.5,0c-38.1-13.6-105.9-4-105.9-4l31.8,18.5l29.1-9.3V310l17.2-1.3l-10.6,11.9l31.8,5.3l-0.4,0l-31.3,2.6
			l9.3,10.6l-18.5-5.3l2.6,14.6l-27.8-15.9l-38.2,19.7c0,0,44.9,12.3,69.9,12c10.7-0.1,21.2-1.3,33.1-2.6c10.3-1.1,39.7-8.7,49-13.2
			c17.3-8.6,19.7-10,37.1-18.5c23.9-11.8,46.3-32.4,62.6-53.4c13.7-17.6,20.3-39.5,26.6-60.9c4.4-14.8,8.7-29.6,13-44.4
			c4.7-16,9.9-32.8,22.4-43.8c18.8-16.6,50.3-4.5,71.2-18.5c4.5-3,9.3-9.3,9.3-9.3l-2.6-15.9c0,0-1.3,7.9-7.9,7.9l-10.6-7.9
			l-6.6,9.3l-9.3-10.6c0,0-9.3,7.9-11.9,7.9c-2.8,0-10.6-13.1-10.6-15.9C440.2,74,440.2,73.6,440.2,73.2z"/>
		<path class="st4" d="M327.7,176.4c-8.8,31-17.8,63.1-29.1,93.3c-3.6,9.5-7.3,19.1-13.4,27.2c-8.5,11.2-21.1,18.9-34.6,22.9
			c-13.2,4-27.4,6.8-41.1,6.2c-0.3,0-0.6,0-0.9,0"/>
		<path class="st4" d="M440.2,73.1c-10.6,0.7-21.8-0.3-32.4,0.4c-15.3,1-31.6,2.5-43.8,11.8c-14.5,11.2-20.1,36.2-24.4,54"/>
		<path class="st4" d="M334.8,128.1c1.9,3.3,3.4,6.9,4.5,10.5c0.1,0.2,0.1,0.4,0.2,0.6c1,3.5,1.7,7.1,2.2,10.6
			c0.7,5.6,0.8,11.3,0.8,17c0.1,10.7-0.3,35.9-0.3,35.9s-6.8-13.3-13.1-24.8c-0.3-0.6-0.7-1.2-1-1.9c-3.6-6.5-7-12.1-8.7-14"/>
		<path class="st4" d="M306.5,63.9c-19.8-2.7-68.9-6.7-131,14.6c-44.6,15.3-46.3,29.4-64.1,45.8c-0.7,0.6-1.4,1.3-2.1,1.9
			c27.8-2.6,46.3-1.3,46.3-1.3l26.5-17.2l2.6,18.5l29.1,2.6l21.2-15.9l5.3,21.2c0,0,30.2,3.2,41,6.6"/>
		<path class="st4" d="M111.9,124.8c6.6-4,11.3-6.1,16.2-8.3c7.3-3.3,14.6-6.7,21.9-10c7.4-3.4,14.8-6.7,22.6-8.8
			c6.9-1.9,13.9-2.8,21-3.6c32.7-4.1,68.1-8,99.7,1.7"/>
	</g>
</g>
<rect x="106" y="392.3" class="st5" width="427.5" height="99.7"/>
<text transform="matrix(1 0 0 1 105.9917 434.2295)" class="st6 st7">TREE SHARKS</text>
</svg>
