<?xml version="1.0" encoding="utf-8"?>
<!-- Generator: Adobe Illustrator 21.0.2, SVG Export Plug-In . SVG Version: 6.00 Build 0)  -->
<svg version="1.1" id="Layer_1" xmlns="http://www.w3.org/2000/svg" xmlns:xlink="http://www.w3.org/1999/xlink" x="0px" y="0px"
	 viewBox="0 0 300 300" style="enable-background:new 0 0 300 300;" xml:space="preserve">
<style type="text/css">
	.st0{fill:url(#SVGID_1_);stroke:#000000;stroke-miterlimit:10;}
	.st1{fill:#B3B3B3;stroke:#000000;stroke-miterlimit:10;}
	.st2{fill:#006837;stroke:#000000;stroke-miterlimit:10;}
	.st3{fill:#009245;stroke:#000000;stroke-miterlimit:10;}
	.st4{fill:none;stroke:#000000;stroke-miterlimit:10;}
</style>
<g id="XMLID_1_">
	<g>
		
			<linearGradient id="SVGID_1_" gradientUnits="userSpaceOnUse" x1="2.585" y1="152.3358" x2="295.9904" y2="152.3358" gradientTransform="matrix(1 0 0 -1 0 302)">
			<stop  offset="0" style="stop-color:#CCE0F4"/>
			<stop  offset="6.405089e-02" style="stop-color:#C3DCF2"/>
			<stop  offset="0.1706" style="stop-color:#A9D2EE"/>
			<stop  offset="0.3066" style="stop-color:#80C2E7"/>
			<stop  offset="0.4649" style="stop-color:#47ACDE"/>
			<stop  offset="0.5674" style="stop-color:#1E9CD7"/>
			<stop  offset="0.8652" style="stop-color:#0075BE"/>
			<stop  offset="0.9944" style="stop-color:#005B97"/>
		</linearGradient>
		<path class="st0" d="M176.8,90.6c3.2-13.2,7.4-31.9,18.2-40.2c9.1-7,21.2-8,32.6-8.8c7.9-0.5,16.2,0.2,24.1-0.3h0.1
			c-0.1,0.3-0.1,0.7-0.1,1c0,2.1,5.8,11.8,7.9,11.8c1.9,0,8.9-5.9,8.9-5.9l6.9,7.9l4.9-6.9l7.9,5.9c4.9,0,5.9-5.9,5.9-5.9l1.9,11.8
			c0,0-3.6,4.7-6.9,6.9c-15.6,10.3-39,1.4-53,13.8c-9.3,8.2-13.2,20.7-16.7,32.6c-3.3,11-6.5,22-9.7,33
			c-4.7,15.9-9.6,32.2-19.8,45.3c-12.2,15.6-28.9,31-46.6,39.7c-12.9,6.4-14.7,7.4-27.6,13.8c-6.9,3.4-28.8,9-36.5,9.8
			c-8.9,1-16.6,1.9-24.6,1.9c-18.6,0.2-52-8.9-52-8.9L31,234.4l20.7,11.8l-1.9-10.9l13.8,3.9l-6.9-7.9l23.3-1.9
			c10.3,0.4,20.8-1.6,30.6-4.6c10-3.1,19.4-8.7,25.8-17c4.5-6,7.4-13.2,10-20.2c8.4-22.5,15.1-46.4,21.7-69.4l0.3-0.1
			c0.2,0.4,0.5,0.9,0.7,1.4c4.8,8.6,9.8,18.5,9.8,18.5s0.4-18.8,0.2-26.7c-0.1-4.2-0.1-8.5-0.6-12.7C178,95.9,177.5,93.2,176.8,90.6
			L176.8,90.6z"/>
		<path class="st1" d="M133.7,91.6c2.1-10.1,4.8-20.2,7.9-30.1c0.4-1.1,0.7-2.2,1-3.3c3.3-10.1,5.7-17.6,9.7-23.7
			c4.5-7.1,10.9-12.7,22.6-18.8C194.5,5.5,234,6,234,6l30.5,5.9l25.6,10.8l7.9,6.9l-0.2,5.8c0,0-4.5-4.6-6.4-6c-1.5-1-3.5-0.6-4.5,1
			l-0.7,8.1l-7.4-7.4c-0.2-0.3-0.7-0.3-0.9,0l-3.5,7.4l-4.2-5.4c-0.7-0.7-1.8-0.7-2.5-0.1l-4.2,8.4c0,0-3-10.9-5.7-8.9
			c-2.3,1.6-5.6,5.3-6.1,8.9h-0.1c-7.9,0.5-16.2-0.2-24.1,0.3c-11.4,0.7-23.5,1.9-32.6,8.8c-10.8,8.3-15,26.9-18.2,40.2h-0.1
			c0.7,2.6,1.3,5.3,1.6,7.9c0.5,4.2,0.6,8.4,0.6,12.7c0.1,8-0.2,26.7-0.2,26.7s-5.1-9.9-9.8-18.5c-0.2-0.4-0.5-0.9-0.7-1.4l-0.3,0.1
			c-6.5,23.1-13.2,47-21.7,69.4c-2.7,7.1-5.4,14.2-10,20.2c-6.3,8.3-15.7,14.1-25.8,17c-9.8,3-20.4,5.1-30.6,4.6h0.3l-23.7-3.9
			l7.9-8.9l-12.8,1v-7.9L30,216.7L6.3,202.9c0,0,50.5-7.1,78.8,3c3.3,1.2,11.8,3,19.7,0c6.2-2.3,9.6-8.4,10.9-10.9
			c10.6-20.3,11.2-28.3,11.8-51.2C128.1,126.3,130.1,108.8,133.7,91.6z"/>
		<path class="st2" d="M133.4,91.6c-8-2.5-30.5-4.9-30.5-4.9L99,70.9L83.2,82.7l-21.7-1.9L59.6,67L39.9,79.8c0,0-13.8-1-34.5,1
			c0.5-0.4,1-1,1.6-1.4l0.4,0.4c4.9-3,8.4-4.5,12.1-6.2c5.4-2.5,10.9-5,16.3-7.4c5.5-2.5,11-5,16.8-6.5c5.1-1.4,10.3-2.1,15.6-2.7
			c24.3-3.1,50.7-6,74.2,1.3l0.3,0.1c-0.4,1.1-0.7,2.2-1,3.3c-3.1,9.9-5.8,19.9-7.9,30.1L133.4,91.6z"/>
		<path class="st3" d="M19.4,73.6c-3.6,1.6-7.1,3.3-12.1,6.2L7,79.3c13.2-12.2,14.4-22.7,47.7-34.1c46.3-15.9,82.8-12.9,97.5-10.9
			l0.1,0.1c-3.9,6.1-6.4,13.5-9.7,23.7l-0.3-0.1c-23.4-7.2-49.8-4.3-74.2-1.3c-5.3,0.7-10.5,1.3-15.6,2.7C46.6,61,41.1,63.5,35.6,66
			C30.3,68.6,24.8,71.1,19.4,73.6z"/>
	</g>
	<g>
		<path class="st4" d="M251.7,41.4c0.5-3.6,3.8-7.4,6.1-8.9c2.7-1.9,5.7,8.9,5.7,8.9l4.1-8.4c0.7-0.5,1.9-0.5,2.5,0.1l4.2,5.3
			l3.5-7.4c0.2-0.3,0.6-0.3,0.9,0l7.4,7.4l0.7-8.1c0.9-1.6,3-2,4.5-1c1.9,1.3,6.4,6,6.4,6l0.2-5.8l-7.7-6.8l-25.6-10.9L234,5.9
			c0,0-39.5-0.4-59.1,9.8c-11.7,6.1-18.1,11.5-22.6,18.8c-3.9,6.1-6.4,13.5-9.7,23.7c-0.4,1.1-0.7,2.2-1,3.3
			c-3.1,9.9-5.8,19.9-7.9,30.1c-3.6,17.2-5.6,34.7-6.1,52.3c-0.7,22.9-1.2,30.8-11.8,51.2c-1.3,2.4-4.6,8.5-10.9,10.9
			c-7.9,3-16.4,1.2-19.7,0c-28.4-10.1-78.8-3-78.8-3L30,216.7l21.7-6.9v7.9l12.8-1l-7.9,8.9l23.7,3.9h-0.3l-23.3,1.9l6.9,7.9
			l-13.8-3.9l1.9,10.9L31,234.4L2.6,249.1c0,0,33.4,9.2,52,8.9c8-0.1,15.8-1,24.6-1.9c7.7-0.8,29.5-6.5,36.5-9.8
			c12.9-6.4,14.7-7.4,27.6-13.8c17.8-8.8,34.5-24.1,46.6-39.7c10.2-13.1,15.1-29.4,19.8-45.3c3.3-11,6.5-22,9.7-33
			c3.5-11.9,7.4-24.4,16.7-32.6c14-12.4,37.4-3.3,53-13.8c3.3-2.2,6.9-6.9,6.9-6.9l-1.9-11.8c0,0-1,5.9-5.9,5.9l-7.9-5.9l-4.9,6.9
			l-6.9-7.9c0,0-6.9,5.9-8.9,5.9c-2.1,0-7.9-9.8-7.9-11.8C251.7,42,251.7,41.7,251.7,41.4z"/>
		<path class="st4" d="M168,118.2c-6.5,23.1-13.2,47-21.7,69.4c-2.7,7.1-5.4,14.2-10,20.2c-6.3,8.3-15.7,14.1-25.8,17
			c-9.8,3-20.4,5.1-30.6,4.6c-0.2,0-0.4,0-0.7,0"/>
		<path class="st4" d="M251.7,41.3c-7.9,0.5-16.2-0.2-24.1,0.3c-11.4,0.7-23.5,1.9-32.6,8.8c-10.8,8.3-15,26.9-18.2,40.2"/>
		<path class="st4" d="M173.3,82.3c1.4,2.5,2.5,5.1,3.3,7.8c0.1,0.1,0.1,0.3,0.1,0.4c0.7,2.6,1.3,5.3,1.6,7.9
			c0.5,4.2,0.6,8.4,0.6,12.7c0.1,8-0.2,26.7-0.2,26.7s-5.1-9.9-9.8-18.5c-0.2-0.4-0.5-0.9-0.7-1.4c-2.7-4.8-5.2-9-6.5-10.4"/>
		<path class="st4" d="M152.2,34.5c-14.7-2-51.3-5-97.5,10.9C21.5,56.7,20.2,67.2,7,79.4c-0.5,0.4-1,1-1.6,1.4
			c20.7-1.9,34.5-1,34.5-1l19.7-12.8l1.9,13.8l21.7,1.9L99,71l3.9,15.8c0,0,22.5,2.4,30.5,4.9"/>
		<path class="st4" d="M7.3,79.8c4.9-3,8.4-4.5,12.1-6.2c5.4-2.5,10.9-5,16.3-7.4c5.5-2.5,11-5,16.8-6.5c5.1-1.4,10.3-2.1,15.6-2.7
			c24.3-3.1,50.7-6,74.2,1.3"/>
	</g>
</g>
</svg>
