<?xml version="1.0" encoding="utf-8"?>
<!-- Generator: Adobe Illustrator 21.0.0, SVG Export Plug-In . SVG Version: 6.00 Build 0)  -->
<svg version="1.1" xmlns="http://www.w3.org/2000/svg" xmlns:xlink="http://www.w3.org/1999/xlink" x="0px" y="0px"
	 viewBox="0 0 1366 768" style="enable-background:new 0 0 1366 768;" xml:space="preserve">
<style type="text/css">
	.st0{fill:url(#SVGID_1_);}
	.st1{fill:url(#SVGID_2_);stroke:#000000;stroke-miterlimit:10;}
	.st2{fill:#B3B3B3;stroke:#000000;stroke-miterlimit:10;}
	.st3{fill:#006837;stroke:#000000;stroke-miterlimit:10;}
	.st4{fill:#009245;stroke:#000000;stroke-miterlimit:10;}
	.st5{fill:none;stroke:#000000;stroke-miterlimit:10;}
	.st6{fill:none;}
	.st7{fill:#FFFFFF;}
	.st8{font-family:'Bungee-Regular';}
	.st9{font-size:29.3958px;}
	.st10{fill:url(#SVGID_3_);}
	.st11{fill:url(#SVGID_4_);}
	.st12{fill:url(#SVGID_5_);}
	.st13{fill:url(#SVGID_6_);}
	.st14{fill:url(#SVGID_7_);}
	.st15{fill:url(#SVGID_8_);}
	.st16{fill:url(#SVGID_9_);}
	.st17{font-family:'DayRoman';}
	.st18{font-size:24px;}
	.st19{font-size:26px;}
	.st20{font-size:18px;}
	.st21{fill:#ED1C24;stroke:#000000;stroke-miterlimit:10;}
	.st22{fill:#E6E7E8;}
	.st23{font-size:34px;}
	.st24{fill:#999999;}
</style>
<g id="Layer_1">
	<g>
		<linearGradient id="SVGID_1_" gradientUnits="userSpaceOnUse" x1="683" y1="767.5" x2="683" y2="0.5">
			<stop  offset="0.2822" style="stop-color:#000000"/>
			<stop  offset="1" style="stop-color:#0D1AFF"/>
		</linearGradient>
		<rect x="0.5" y="0.5" class="st0" width="1365" height="767"/>
		<path d="M1365,1v766H1V1H1365 M1366,0H0v768h1366V0L1366,0z"/>
	</g>
</g>
<g id="Layer_2">
	<g id="XMLID_1_">
		<g>
			
				<linearGradient id="SVGID_2_" gradientUnits="userSpaceOnUse" x1="574.5" y1="630.9927" x2="773.5023" y2="630.9927" gradientTransform="matrix(1 0 0 -1 0 770)">
				<stop  offset="0" style="stop-color:#CCE0F4"/>
				<stop  offset="6.405089e-02" style="stop-color:#C3DCF2"/>
				<stop  offset="0.1706" style="stop-color:#A9D2EE"/>
				<stop  offset="0.3066" style="stop-color:#80C2E7"/>
				<stop  offset="0.4649" style="stop-color:#47ACDE"/>
				<stop  offset="0.5674" style="stop-color:#1E9CD7"/>
				<stop  offset="0.8652" style="stop-color:#0075BE"/>
				<stop  offset="0.9944" style="stop-color:#005B97"/>
			</linearGradient>
			<path class="st1" d="M692.7,98.9c2.2-9,5-21.6,12.3-27.3c6.2-4.7,14.4-5.5,22.1-6c5.4-0.4,11,0.2,16.4-0.2h0.1
				c-0.1,0.2-0.1,0.5-0.1,0.7c0,1.4,3.9,8,5.4,8c1.3,0,6-4,6-4l4.7,5.4l3.3-4.7l5.4,4c3.3,0,4-4,4-4l1.3,8c0,0-2.4,3.2-4.7,4.7
				c-10.6,7-26.5,1-35.9,9.3c-6.3,5.6-8.9,14-11.3,22.1c-2.2,7.5-4.4,14.9-6.6,22.4c-3.2,10.8-6.5,21.9-13.4,30.7
				c-8.3,10.6-19.6,21-31.6,27c-8.7,4.3-9.9,5-18.7,9.3c-4.7,2.3-19.5,6.1-24.7,6.7c-6,0.7-11.3,1.3-16.7,1.3
				c-12.6,0.2-35.3-6.1-35.3-6.1l19.3-9.9l14,8l-1.3-7.4l9.3,2.7l-4.7-5.4l15.8-1.3c7,0.3,14.1-1.1,20.7-3.1
				c6.8-2.1,13.2-5.9,17.5-11.6c3.1-4.1,5-8.9,6.8-13.7c5.7-15.2,10.2-31.5,14.7-47.1l0.2-0.1c0.2,0.3,0.4,0.6,0.5,1
				c3.2,5.8,6.6,12.5,6.6,12.5s0.3-12.7,0.2-18.1c-0.1-2.9-0.1-5.8-0.4-8.6C693.5,102.5,693.1,100.7,692.7,98.9L692.7,98.9z"/>
			<path class="st2" d="M663.4,99.7c1.4-6.9,3.2-13.7,5.4-20.4c0.3-0.8,0.5-1.5,0.7-2.3c2.2-6.9,3.9-11.9,6.6-16.1
				c3.1-4.8,7.4-8.6,15.3-12.7c13.3-7,40.1-6.7,40.1-6.7l20.7,4l17.4,7.3l5.4,4.7l-0.2,3.9c0,0-3.1-3.1-4.3-4c-1-0.7-2.4-0.4-3,0.7
				l-0.5,5.5l-5-5c-0.2-0.2-0.5-0.2-0.6,0l-2.4,5l-2.9-3.7c-0.5-0.5-1.2-0.5-1.7-0.1l-2.8,5.7c0,0-2-7.4-3.8-6.1
				c-1.6,1.1-3.8,3.6-4.1,6.1h-0.1c-5.4,0.4-11-0.2-16.4,0.2c-7.7,0.5-16,1.3-22.1,6c-7.3,5.7-10.1,18.3-12.3,27.3h-0.1
				c0.5,1.8,0.9,3.6,1.1,5.4c0.4,2.8,0.4,5.7,0.4,8.6c0.1,5.4-0.2,18.1-0.2,18.1s-3.4-6.7-6.6-12.5c-0.2-0.3-0.4-0.6-0.5-1l-0.2,0.1
				c-4.4,15.6-9,31.9-14.7,47.1c-1.8,4.8-3.7,9.6-6.8,13.7c-4.3,5.7-10.7,9.5-17.5,11.6c-6.7,2-13.8,3.4-20.7,3.1h0.2l-16.1-2.7
				l5.4-6l-8.7,0.7v-5.4l-14.7,4.7l-16.1-9.3c0,0,34.2-4.8,53.5,2c2.3,0.8,8,2,13.4,0c4.2-1.6,6.5-5.7,7.4-7.4
				c7.2-13.8,7.6-19.2,8-34.7C659.6,123.2,661,111.3,663.4,99.7z"/>
			<path class="st3" d="M663.2,99.6c-5.5-1.7-20.7-3.3-20.7-3.3l-2.7-10.7l-10.7,8l-14.7-1.3l-1.3-9.3l-13.4,8.7
				c0,0-9.3-0.7-23.4,0.7c0.4-0.3,0.7-0.7,1.1-1l0.3,0.3c3.3-2,5.7-3.1,8.2-4.2c3.7-1.7,7.4-3.4,11.1-5c3.7-1.7,7.5-3.4,11.4-4.4
				c3.5-1,7-1.4,10.6-1.8c16.5-2.1,34.4-4,50.3,0.9l0.2,0.1c-0.3,0.8-0.5,1.5-0.7,2.3c-2.1,6.7-3.9,13.5-5.4,20.4L663.2,99.6z"/>
			<path class="st4" d="M585.9,87.4c-2.5,1.1-4.8,2.2-8.2,4.2l-0.3-0.3c9-8.3,9.8-15.4,32.4-23.1c31.4-10.8,56.2-8.7,66.1-7.4
				l0.1,0.1c-2.6,4.1-4.3,9.2-6.6,16.1l-0.2-0.1c-15.9-4.9-33.8-2.9-50.3-0.9c-3.6,0.5-7.1,0.9-10.6,1.8c-3.9,1.1-7.7,2.8-11.4,4.4
				C593.3,84.1,589.6,85.7,585.9,87.4z"/>
		</g>
		<g>
			<path class="st5" d="M743.5,65.6c0.4-2.5,2.6-5,4.1-6.1c1.8-1.3,3.8,6.1,3.8,6.1l2.8-5.7c0.5-0.4,1.3-0.4,1.7,0.1l2.8,3.6l2.4-5
				c0.2-0.2,0.4-0.2,0.6,0l5,5l0.5-5.5c0.6-1.1,2-1.4,3-0.7c1.3,0.9,4.3,4,4.3,4l0.2-3.9l-5.3-4.6l-17.4-7.4l-20.7-4
				c0,0-26.8-0.3-40.1,6.7c-7.9,4.1-12.3,7.8-15.3,12.7c-2.6,4.1-4.3,9.2-6.6,16.1c-0.3,0.8-0.5,1.5-0.7,2.3
				c-2.1,6.7-3.9,13.5-5.4,20.4c-2.4,11.7-3.8,23.5-4.1,35.4c-0.5,15.5-0.8,20.9-8,34.7c-0.9,1.6-3.1,5.8-7.4,7.4
				c-5.4,2-11.1,0.8-13.4,0c-19.2-6.9-53.5-2-53.5-2l16.1,9.3l14.7-4.7v5.4l8.7-0.7l-5.4,6l16.1,2.7H627l-15.8,1.3l4.7,5.4l-9.3-2.7
				l1.3,7.4l-14-8l-19.3,9.9c0,0,22.7,6.2,35.3,6.1c5.4-0.1,10.7-0.7,16.7-1.3c5.2-0.6,20-4.4,24.7-6.7c8.7-4.3,9.9-5,18.7-9.3
				c12.1-6,23.4-16.4,31.6-27c6.9-8.9,10.2-19.9,13.4-30.7c2.2-7.5,4.4-14.9,6.6-22.4c2.4-8.1,5-16.6,11.3-22.1
				c9.5-8.4,25.4-2.3,35.9-9.3c2.3-1.5,4.7-4.7,4.7-4.7l-1.3-8c0,0-0.7,4-4,4l-5.4-4l-3.3,4.7l-4.7-5.4c0,0-4.7,4-6,4
				c-1.4,0-5.4-6.6-5.4-8C743.5,66,743.5,65.8,743.5,65.6z"/>
			<path class="st5" d="M686.7,117.7c-4.4,15.6-9,31.9-14.7,47.1c-1.8,4.8-3.7,9.6-6.8,13.7c-4.3,5.7-10.7,9.5-17.5,11.6
				c-6.7,2-13.8,3.4-20.7,3.1c-0.2,0-0.3,0-0.5,0"/>
			<path class="st5" d="M743.5,65.5c-5.4,0.4-11-0.2-16.4,0.2c-7.7,0.5-16,1.3-22.1,6c-7.3,5.7-10.1,18.3-12.3,27.3"/>
			<path class="st5" d="M690.3,93.3c1,1.7,1.7,3.5,2.3,5.3c0.1,0.1,0.1,0.2,0.1,0.3c0.5,1.8,0.9,3.6,1.1,5.4
				c0.4,2.8,0.4,5.7,0.4,8.6c0.1,5.4-0.2,18.1-0.2,18.1s-3.4-6.7-6.6-12.5c-0.2-0.3-0.4-0.6-0.5-1c-1.8-3.3-3.5-6.1-4.4-7.1"/>
			<path class="st5" d="M676,60.9c-10-1.4-34.8-3.4-66.1,7.4c-22.5,7.7-23.4,14.8-32.4,23.1c-0.4,0.3-0.7,0.7-1.1,1
				c14-1.3,23.4-0.7,23.4-0.7l13.4-8.7l1.3,9.3l14.7,1.3l10.7-8l2.7,10.7c0,0,15.2,1.6,20.7,3.3"/>
			<path class="st5" d="M577.7,91.6c3.3-2,5.7-3.1,8.2-4.2c3.7-1.7,7.4-3.4,11.1-5c3.7-1.7,7.5-3.4,11.4-4.4c3.5-1,7-1.4,10.6-1.8
				c16.5-2.1,34.4-4,50.3,0.9"/>
		</g>
	</g>
	<rect x="574.8" y="226.7" class="st6" width="215.8" height="50.3"/>
	<text transform="matrix(1 0 0 1 574.748 247.8359)" class="st7 st8 st9">TREE SHARKS</text>
</g>
<g id="Layer_3">
	<linearGradient id="SVGID_3_" gradientUnits="userSpaceOnUse" x1="931.7175" y1="236.5693" x2="931.7175" y2="53.2437">
		<stop  offset="0" style="stop-color:#000000"/>
		<stop  offset="0.1758" style="stop-color:#000B06"/>
		<stop  offset="0.4893" style="stop-color:#002A16"/>
		<stop  offset="0.9013" style="stop-color:#005B30"/>
		<stop  offset="1" style="stop-color:#006837"/>
	</linearGradient>
	<polygon class="st10" points="931.1,236 939.1,222.3 942.5,215.5 944.8,206.4 955.7,198.4 953.9,185.9 966.4,179.8 968.7,167.7 
		976.4,162.5 979,149.5 993.8,141.5 1002.9,117.6 1011.7,106.5 1014.3,94.8 1020,90.5 1023.4,80 1020,67.5 1027.9,60.6 994.9,59.5 
		967.6,59.5 953.9,69.8 938,59.5 887.9,59.5 891.3,72 868.8,59.5 835.5,59.5 840.9,71.5 844.6,80 853.7,84.6 858,96.2 865.1,114.2 
		882.2,131.2 884.8,149.8 897,162 898.3,173.3 906.1,181.3 914.1,201.8 925.5,201.8 920.2,211.1 927.7,216.6 	"/>
	<linearGradient id="SVGID_4_" gradientUnits="userSpaceOnUse" x1="669" y1="447" x2="669" y2="286">
		<stop  offset="0" style="stop-color:#000000"/>
		<stop  offset="9.149158e-02" style="stop-color:#0B0501"/>
		<stop  offset="0.2547" style="stop-color:#2A1305"/>
		<stop  offset="0.4707" style="stop-color:#5C290B"/>
		<stop  offset="0.7313" style="stop-color:#A14713"/>
		<stop  offset="1" style="stop-color:#EF6A1D"/>
	</linearGradient>
	<polygon class="st11" points="668.5,446.5 675.5,434.5 678.5,428.5 680.5,420.5 690,413.5 688.5,402.5 699.5,397.1 701.5,386.5 
		708.2,382 710.5,370.5 723.5,363.5 731.5,342.5 739.3,332.8 741.5,322.5 746.5,318.7 749.5,309.5 746.5,298.5 753.5,292.5 
		724.5,291.5 700.5,291.5 688.5,300.5 674.5,291.5 630.5,291.5 633.5,302.5 613.7,291.5 584.5,291.5 589.3,302 592.5,309.5 
		600.5,313.5 604.3,323.7 610.5,339.5 625.5,354.5 627.8,370.8 638.5,381.5 639.7,391.4 646.5,398.5 653.5,416.5 663.5,416.5 
		658.9,424.6 665.5,429.5 	"/>
	<linearGradient id="SVGID_5_" gradientUnits="userSpaceOnUse" x1="1016" y1="444" x2="1016" y2="283">
		<stop  offset="0" style="stop-color:#000000"/>
		<stop  offset="9.149158e-02" style="stop-color:#0B0501"/>
		<stop  offset="0.2547" style="stop-color:#2A1305"/>
		<stop  offset="0.4707" style="stop-color:#5C290B"/>
		<stop  offset="0.7313" style="stop-color:#A14713"/>
		<stop  offset="1" style="stop-color:#EF6A1D"/>
	</linearGradient>
	<polygon class="st12" points="1015.5,443.5 1022.5,431.5 1025.5,425.5 1027.5,417.5 1037,410.5 1035.5,399.5 1046.5,394.1 
		1048.5,383.5 1055.2,379 1057.5,367.5 1070.5,360.5 1078.5,339.5 1086.3,329.8 1088.5,319.5 1093.5,315.7 1096.5,306.5 
		1093.5,295.5 1100.5,289.5 1071.5,288.5 1047.5,288.5 1035.5,297.5 1021.5,288.5 977.5,288.5 980.5,299.5 960.7,288.5 931.5,288.5 
		936.3,299 939.5,306.5 947.5,310.5 951.3,320.7 957.5,336.5 972.5,351.5 974.8,367.8 985.5,378.5 986.7,388.4 993.5,395.5 
		1000.5,413.5 1010.5,413.5 1005.9,421.6 1012.5,426.5 	"/>
	<linearGradient id="SVGID_6_" gradientUnits="userSpaceOnUse" x1="354" y1="440" x2="354" y2="279">
		<stop  offset="0" style="stop-color:#000000"/>
		<stop  offset="9.149158e-02" style="stop-color:#0B0501"/>
		<stop  offset="0.2547" style="stop-color:#2A1305"/>
		<stop  offset="0.4707" style="stop-color:#5C290B"/>
		<stop  offset="0.7313" style="stop-color:#A14713"/>
		<stop  offset="1" style="stop-color:#EF6A1D"/>
	</linearGradient>
	<polygon class="st13" points="353.5,439.5 360.5,427.5 363.5,421.5 365.5,413.5 375,406.5 373.5,395.5 384.5,390.1 386.5,379.5 
		393.2,375 395.5,363.5 408.5,356.5 416.5,335.5 424.3,325.8 426.5,315.5 431.5,311.7 434.5,302.5 431.5,291.5 438.5,285.5 
		409.5,284.5 385.5,284.5 373.5,293.5 359.5,284.5 315.5,284.5 318.5,295.5 298.7,284.5 269.5,284.5 274.3,295 277.5,302.5 
		285.5,306.5 289.3,316.7 295.5,332.5 310.5,347.5 312.8,363.8 323.5,374.5 324.7,384.4 331.5,391.5 338.5,409.5 348.5,409.5 
		343.9,417.6 350.5,422.5 	"/>
	<linearGradient id="SVGID_7_" gradientUnits="userSpaceOnUse" x1="438.7175" y1="236.5693" x2="438.7175" y2="53.2437">
		<stop  offset="0" style="stop-color:#000000"/>
		<stop  offset="0.1758" style="stop-color:#000B06"/>
		<stop  offset="0.4893" style="stop-color:#002A16"/>
		<stop  offset="0.9013" style="stop-color:#005B30"/>
		<stop  offset="1" style="stop-color:#006837"/>
	</linearGradient>
	<polygon class="st14" points="438.1,236 446.1,222.3 449.5,215.5 451.8,206.4 462.7,198.4 460.9,185.9 473.4,179.8 475.7,167.7 
		483.4,162.5 486,149.5 500.8,141.5 509.9,117.6 518.7,106.5 521.3,94.8 527,90.5 530.4,80 527,67.5 534.9,60.6 501.9,59.5 
		474.6,59.5 460.9,69.8 445,59.5 394.9,59.5 398.3,72 375.8,59.5 342.5,59.5 347.9,71.5 351.6,80 360.7,84.6 365,96.2 372.1,114.2 
		389.2,131.2 391.8,149.8 404,162 405.3,173.3 413.1,181.3 421.1,201.8 432.5,201.8 427.2,211.1 434.7,216.6 	"/>
	<linearGradient id="SVGID_8_" gradientUnits="userSpaceOnUse" x1="156.25" y1="305.1672" x2="156.25" y2="90.3417">
		<stop  offset="0" style="stop-color:#000000"/>
		<stop  offset="8.831124e-02" style="stop-color:#0C0C0C"/>
		<stop  offset="0.2492" style="stop-color:#2D2D2D"/>
		<stop  offset="0.4646" style="stop-color:#626262"/>
		<stop  offset="0.7267" style="stop-color:#ABABAB"/>
		<stop  offset="1" style="stop-color:#FFFFFF"/>
	</linearGradient>
	<polygon class="st15" points="155.6,304.5 164.9,288.5 168.9,280.5 171.6,269.8 184.3,260.5 182.3,245.8 196.9,238.6 199.6,224.4 
		208.6,218.4 211.6,203.1 229,193.8 239.6,165.7 250,152.7 253,139 259.7,134 263.7,121.7 259.7,107 269,99 230.3,97.7 198.3,97.6 
		182.3,109.7 163.6,97.7 104.9,97.7 108.9,112.4 82.5,97.6 43.5,97.7 49.9,111.7 54.2,121.7 64.8,127 69.9,140.7 78.2,161.7 
		98.2,181.7 101.3,203.5 115.6,217.8 117.1,231 126.2,240.5 135.6,264.5 148.9,264.5 142.7,275.3 151.6,281.8 	"/>
	<linearGradient id="SVGID_9_" gradientUnits="userSpaceOnUse" x1="1218.75" y1="305.1612" x2="1218.75" y2="92.2411">
		<stop  offset="0" style="stop-color:#000000"/>
		<stop  offset="8.871470e-02" style="stop-color:#070707"/>
		<stop  offset="0.2165" style="stop-color:#1A1A1A"/>
		<stop  offset="0.3679" style="stop-color:#393939"/>
		<stop  offset="0.5375" style="stop-color:#656565"/>
		<stop  offset="0.7222" style="stop-color:#9D9D9D"/>
		<stop  offset="0.9166" style="stop-color:#E0E0E0"/>
		<stop  offset="1" style="stop-color:#FFFFFF"/>
	</linearGradient>
	<polygon class="st16" points="1218.1,304.5 1227.3,288.6 1231.3,280.7 1234,270.1 1246.6,260.9 1244.5,246.3 1259.1,239.2 
		1261.7,225.2 1270.7,219.1 1273.6,204 1290.8,194.7 1301.4,167 1311.7,154.1 1314.6,140.5 1321.3,135.5 1325.2,123.3 1321.2,108.8 
		1330.5,100.8 1292.1,99.5 1260.4,99.5 1244.5,111.4 1226,99.5 1167.8,99.5 1171.8,114.1 1145.7,99.5 1107,99.5 1113.3,113.4 
		1117.6,123.3 1128.2,128.6 1133.1,142.1 1141.4,163 1161.2,182.8 1164.3,204.4 1178.4,218.5 1180,231.6 1189,241 1198.3,264.8 
		1211.5,264.8 1205.4,275.6 1214.1,282 	"/>
</g>
<g id="Layer_4">
	<rect x="310" y="310" class="st6" width="100" height="23"/>
	<text transform="matrix(1 0 0 1 310 328.7681)" class="st17 st18">VIDEOS</text>
	<rect x="613" y="311" class="st6" width="139" height="26"/>
	<text transform="matrix(1 0 0 1 613 329.7681)" class="st17 st18">PROJECTS</text>
	<rect x="966" y="309" class="st6" width="111" height="24"/>
	<text transform="matrix(1 0 0 1 966 327.7681)" class="st17 st18">FORUMS</text>
	<rect x="867" y="84" class="st6" width="139" height="63"/>
	<text transform="matrix(1 0 0 1 898.9307 104.332)"><tspan x="0" y="0" class="st7 st17 st19">CON</tspan><tspan x="65.3" y="0" class="st7 st17 st19">-</tspan><tspan x="-0.4" y="31.2" class="st7 st17 st19">TACT</tspan></text>
	<rect x="375" y="83" class="st6" width="144" height="25"/>
	<text transform="matrix(1 0 0 1 375 103.332)" class="st7 st17 st19">ARCHIVES</text>
	<rect x="28" y="118" class="st6" width="268" height="101"/>
	<text transform="matrix(1 0 0 1 74.8091 132.0762)"><tspan x="0" y="0" class="st17 st20">Example@example.ca</tspan><tspan x="15" y="21.6" class="st17 st20">Current Members</tspan><tspan x="56.6" y="43.2" class="st17 st20">Online:</tspan><tspan x="83.1" y="64.8" class="st17 st20">2</tspan></text>
	<rect x="1112.2" y="121.1" class="st6" width="226.8" height="75.9"/>
	<text transform="matrix(1 0 0 1 1191.5313 135.1377)"><tspan x="0" y="0" class="st17 st20">Based in</tspan><tspan x="-26.2" y="21.6" class="st17 st20">Barrie Ontario</tspan><tspan x="4" y="43.2" class="st17 st20">Canada</tspan></text>
</g>
<g id="Layer_5">
	<path class="st7" d="M494.5,758h-404C77,758,66,747,66,733.5v-175C66,545,77,534,90.5,534h404c13.5,0,24.5,11,24.5,24.5v175
		C519,747,508,758,494.5,758z"/>
	<path class="st21" d="M338,671.5h-97c-11.9,0-21.5-9.6-21.5-21.5v-19c0-11.9,9.6-21.5,21.5-21.5h97c11.9,0,21.5,9.6,21.5,21.5v19
		C359.5,661.9,349.9,671.5,338,671.5z"/>
	<polygon class="st22" points="274.9,618.8 309.1,638.5 274.9,658.3 	"/>
	<rect x="104" y="496" class="st6" width="153" height="48"/>
	<text transform="matrix(1 0 0 1 123.4829 522.5879)" class="st7 st17 st23">Video 1</text>
	<path class="st24" d="M945,768H621c-11.6,0-21-9.4-21-21V555c0-11.6,9.4-21,21-21h324c11.6,0,21,9.4,21,21v192
		C966,758.6,956.6,768,945,768z"/>
	<rect x="624" y="544" class="st6" width="322" height="54"/>
	<text transform="matrix(1 0 0 1 685.3809 570.5879)" class="st17 st23">Recent News</text>
	<line class="st5" x1="627" y1="586" x2="946" y2="586"/>
	<rect x="631" y="614" class="st6" width="315.3" height="154"/>
	<text transform="matrix(1 0 0 1 640.5938 628.0762)"><tspan x="0" y="0" class="st17 st20">Lorem ipsum dolor sit amet, consec</tspan><tspan x="289.3" y="0" class="st17 st20">-</tspan><tspan x="24.6" y="21.6" class="st17 st20">tetuer adipiscing elit, sed diam </tspan><tspan x="-2.1" y="43.2" class="st17 st20">nonummy nibh euismod tincidunt ut </tspan><tspan x="-7.1" y="64.8" class="st17 st20">laoreet dolore magna aliquam erat vo</tspan><tspan x="296.4" y="64.8" class="st17 st20">-</tspan><tspan x="-9" y="86.4" class="st17 st20">lutpat. Ut wisi enim ad minim veniam, </tspan><tspan x="-7.4" y="108" class="st17 st20">quis nostrud exerci tation ullamcorper </tspan><tspan x="2.3" y="129.6" class="st17 st20">suscipit lobortis nisl ut aliquip ex ea</tspan></text>
	<rect x="1028" y="534" class="st24" width="277" height="234"/>
	<rect x="1055" y="546" class="st6" width="226" height="42"/>
	<text transform="matrix(1 0 0 1 1129.3936 572.5879)" class="st17 st23">FAQ</text>
	<line class="st5" x1="1058" y1="585.5" x2="1282" y2="585.5"/>
	<rect x="1058" y="605" class="st6" width="223" height="153"/>
	<text transform="matrix(1 0 0 1 1058 619.0762)"><tspan x="0" y="0" class="st17 st20">Q: Lorem ipsum dolor sit </tspan><tspan x="0" y="21.6" class="st17 st20">amet?</tspan><tspan x="0" y="43.2" class="st17 st20">A: Consectetuer adipiscing </tspan><tspan x="0" y="64.8" class="st17 st20">elit.</tspan><tspan x="0" y="108" class="st17 st20">Q: Sed diam nonummy </tspan><tspan x="0" y="129.6" class="st17 st20">nibh euismod tincidunt.</tspan></text>
</g>
</svg>
